<mxfile host="app.diagrams.net" modified="2024-03-30T11:24:53.494Z" agent="Mozilla/5.0 (Windows NT 10.0; Win64; x64) AppleWebKit/537.36 (KHTML, like Gecko) Chrome/123.0.0.0 Safari/537.36" etag="L-IiT-sYPExUCIgLNEUU" version="24.2.1" type="github">
  <diagram name="Page-1" id="X_xu9yqvRvAoMvWeWLDH">
    <mxGraphModel dx="1195" dy="580" grid="1" gridSize="10" guides="1" tooltips="1" connect="1" arrows="1" fold="1" page="1" pageScale="1" pageWidth="827" pageHeight="1169" math="0" shadow="0">
      <root>
        <mxCell id="0" />
        <mxCell id="1" parent="0" />
        <mxCell id="EGz7ehtEaYW6THcZkwWd-1" style="edgeStyle=orthogonalEdgeStyle;rounded=0;orthogonalLoop=1;jettySize=auto;html=1;" edge="1" parent="1" source="EGz7ehtEaYW6THcZkwWd-2" target="EGz7ehtEaYW6THcZkwWd-17">
          <mxGeometry relative="1" as="geometry">
            <mxPoint x="190" y="215.5" as="targetPoint" />
            <Array as="points" />
          </mxGeometry>
        </mxCell>
        <mxCell id="EGz7ehtEaYW6THcZkwWd-2" value="Actor&lt;br&gt;User or Service" style="shape=umlActor;verticalLabelPosition=bottom;verticalAlign=top;html=1;outlineConnect=0;" vertex="1" parent="1">
          <mxGeometry x="60" y="185" width="30" height="60" as="geometry" />
        </mxCell>
        <mxCell id="EGz7ehtEaYW6THcZkwWd-3" value="&lt;font style=&quot;font-size: 18px;&quot;&gt;Concept 1: Generic&lt;/font&gt;" style="text;html=1;align=center;verticalAlign=middle;resizable=0;points=[];autosize=1;strokeColor=none;fillColor=none;" vertex="1" parent="1">
          <mxGeometry x="305" y="35" width="180" height="40" as="geometry" />
        </mxCell>
        <mxCell id="EGz7ehtEaYW6THcZkwWd-5" value="" style="group" vertex="1" connectable="0" parent="1">
          <mxGeometry x="280" y="540" width="270" height="130" as="geometry" />
        </mxCell>
        <mxCell id="EGz7ehtEaYW6THcZkwWd-6" value="" style="rounded=0;whiteSpace=wrap;html=1;fillColor=#fff2cc;strokeColor=#d6b656;" vertex="1" parent="EGz7ehtEaYW6THcZkwWd-5">
          <mxGeometry width="270" height="130" as="geometry" />
        </mxCell>
        <mxCell id="EGz7ehtEaYW6THcZkwWd-7" value="AWS ECS Space" style="text;html=1;align=center;verticalAlign=middle;resizable=0;points=[];autosize=1;strokeColor=none;fillColor=none;" vertex="1" parent="EGz7ehtEaYW6THcZkwWd-5">
          <mxGeometry width="120" height="30" as="geometry" />
        </mxCell>
        <mxCell id="EGz7ehtEaYW6THcZkwWd-8" value="ECS&lt;br&gt;Service" style="sketch=0;outlineConnect=0;fontColor=#232F3E;gradientColor=none;fillColor=#ED7100;strokeColor=none;dashed=0;verticalLabelPosition=bottom;verticalAlign=top;align=center;html=1;fontSize=12;fontStyle=0;aspect=fixed;pointerEvents=1;shape=mxgraph.aws4.ecs_service;" vertex="1" parent="EGz7ehtEaYW6THcZkwWd-5">
          <mxGeometry x="210.5" y="41" width="39" height="48" as="geometry" />
        </mxCell>
        <mxCell id="EGz7ehtEaYW6THcZkwWd-9" value="ECS&lt;br&gt;Task Definition" style="sketch=0;outlineConnect=0;fontColor=#232F3E;gradientColor=none;fillColor=#ED7100;strokeColor=none;dashed=0;verticalLabelPosition=bottom;verticalAlign=top;align=center;html=1;fontSize=12;fontStyle=0;aspect=fixed;pointerEvents=1;shape=mxgraph.aws4.ecs_task;" vertex="1" parent="EGz7ehtEaYW6THcZkwWd-5">
          <mxGeometry x="120.5" y="41" width="37" height="48" as="geometry" />
        </mxCell>
        <mxCell id="EGz7ehtEaYW6THcZkwWd-10" value="ECS&lt;br&gt;Cluster" style="sketch=0;outlineConnect=0;fontColor=#232F3E;gradientColor=none;fillColor=#ED7100;strokeColor=none;dashed=0;verticalLabelPosition=bottom;verticalAlign=top;align=center;html=1;fontSize=12;fontStyle=0;aspect=fixed;pointerEvents=1;shape=mxgraph.aws4.container_2;" vertex="1" parent="EGz7ehtEaYW6THcZkwWd-5">
          <mxGeometry x="20.5" y="49.5" width="48" height="31" as="geometry" />
        </mxCell>
        <mxCell id="EGz7ehtEaYW6THcZkwWd-11" style="edgeStyle=orthogonalEdgeStyle;rounded=0;orthogonalLoop=1;jettySize=auto;html=1;" edge="1" parent="EGz7ehtEaYW6THcZkwWd-5" source="EGz7ehtEaYW6THcZkwWd-8" target="EGz7ehtEaYW6THcZkwWd-9">
          <mxGeometry relative="1" as="geometry" />
        </mxCell>
        <mxCell id="EGz7ehtEaYW6THcZkwWd-12" style="edgeStyle=orthogonalEdgeStyle;rounded=0;orthogonalLoop=1;jettySize=auto;html=1;" edge="1" parent="EGz7ehtEaYW6THcZkwWd-5" source="EGz7ehtEaYW6THcZkwWd-9" target="EGz7ehtEaYW6THcZkwWd-10">
          <mxGeometry relative="1" as="geometry" />
        </mxCell>
        <mxCell id="EGz7ehtEaYW6THcZkwWd-14" style="edgeStyle=orthogonalEdgeStyle;rounded=0;orthogonalLoop=1;jettySize=auto;html=1;" edge="1" parent="1" source="EGz7ehtEaYW6THcZkwWd-15" target="EGz7ehtEaYW6THcZkwWd-9">
          <mxGeometry relative="1" as="geometry">
            <Array as="points">
              <mxPoint x="654" y="554.5" />
              <mxPoint x="419" y="554.5" />
            </Array>
          </mxGeometry>
        </mxCell>
        <mxCell id="EGz7ehtEaYW6THcZkwWd-15" value="ECR Image" style="sketch=0;points=[[0,0,0],[0.25,0,0],[0.5,0,0],[0.75,0,0],[1,0,0],[0,1,0],[0.25,1,0],[0.5,1,0],[0.75,1,0],[1,1,0],[0,0.25,0],[0,0.5,0],[0,0.75,0],[1,0.25,0],[1,0.5,0],[1,0.75,0]];outlineConnect=0;fontColor=#232F3E;fillColor=#ED7100;strokeColor=#ffffff;dashed=0;verticalLabelPosition=bottom;verticalAlign=top;align=center;html=1;fontSize=12;fontStyle=0;aspect=fixed;shape=mxgraph.aws4.resourceIcon;resIcon=mxgraph.aws4.ecr;" vertex="1" parent="1">
          <mxGeometry x="630" y="586.5" width="48" height="48" as="geometry" />
        </mxCell>
        <mxCell id="EGz7ehtEaYW6THcZkwWd-16" value="AWS NLB" style="sketch=0;outlineConnect=0;fontColor=#232F3E;gradientColor=none;fillColor=#8C4FFF;strokeColor=none;dashed=0;verticalLabelPosition=bottom;verticalAlign=top;align=center;html=1;fontSize=12;fontStyle=0;aspect=fixed;pointerEvents=1;shape=mxgraph.aws4.network_load_balancer;" vertex="1" parent="1">
          <mxGeometry x="356" y="176" width="78" height="78" as="geometry" />
        </mxCell>
        <mxCell id="EGz7ehtEaYW6THcZkwWd-18" style="edgeStyle=orthogonalEdgeStyle;rounded=0;orthogonalLoop=1;jettySize=auto;html=1;" edge="1" parent="1" source="EGz7ehtEaYW6THcZkwWd-17" target="EGz7ehtEaYW6THcZkwWd-16">
          <mxGeometry relative="1" as="geometry" />
        </mxCell>
        <mxCell id="EGz7ehtEaYW6THcZkwWd-17" value="AWS API Gateway" style="sketch=0;points=[[0,0,0],[0.25,0,0],[0.5,0,0],[0.75,0,0],[1,0,0],[0,1,0],[0.25,1,0],[0.5,1,0],[0.75,1,0],[1,1,0],[0,0.25,0],[0,0.5,0],[0,0.75,0],[1,0.25,0],[1,0.5,0],[1,0.75,0]];outlineConnect=0;fontColor=#232F3E;fillColor=#8C4FFF;strokeColor=#ffffff;dashed=0;verticalLabelPosition=bottom;verticalAlign=top;align=center;html=1;fontSize=12;fontStyle=0;aspect=fixed;shape=mxgraph.aws4.resourceIcon;resIcon=mxgraph.aws4.api_gateway;" vertex="1" parent="1">
          <mxGeometry x="170" y="176" width="78" height="78" as="geometry" />
        </mxCell>
      </root>
    </mxGraphModel>
  </diagram>
</mxfile>
